<?xml version="1.0" encoding="utf-8"?>
<!-- Generator: Adobe Illustrator 15.0.0, SVG Export Plug-In . SVG Version: 6.00 Build 0)  -->
<!DOCTYPE svg PUBLIC "-//W3C//DTD SVG 1.1//EN" "http://www.w3.org/Graphics/SVG/1.1/DTD/svg11.dtd">
<svg version="1.1" id="Layer_1" xmlns="http://www.w3.org/2000/svg" xmlns:xlink="http://www.w3.org/1999/xlink" x="0px" y="0px"
	 width="512px" height="512px" viewBox="0 0 512 512" enable-background="new 0 0 512 512" xml:space="preserve">
<path d="M442.668,150.161C446.035,143.045,448,135.616,448,128V96c0-53-85.969-96-192-96C155.136,0,72.434,38.912,64.611,88.327
	C25.055,105.888,0,131.479,0,160v32c0,29.688,27,56.219,69.344,73.812C65.969,272.938,64,280.375,64,288v32
	c0,11.25,4.063,21.969,11.188,32C68.063,362.031,64,372.75,64,384v32c0,53,85.969,96,192,96s192-43,192-96v-32
	c0-11.438-4.219-22.344-11.531-32.5c-0.062,0.062-0.125,0.156-0.188,0.219c5.375-7.625,9.594-15.562,10.938-23.969
	C486.875,310.156,512,284.562,512,256v-32C512,194.316,485.005,167.755,442.668,150.161z M256,16c103.719,0,176,42.156,176,80
	c0,37.813-72.281,80-176,80S80,133.813,80,96C80,58.156,152.281,16,256,16z M16,160c0-18.688,17.719-38.344,48-53.531V128
	c0,53,85.969,96,192,96c15.844,0,31.156-1.063,45.875-2.875C272.531,232.406,235.25,240,192,240C88.281,240,16,197.813,16,160z
	 M320,352c15.906,0,31.281-1.062,46.062-2.906c-0.031,0-0.062,0.031-0.125,0.031C336.562,360.438,299.281,368,256,368
	c-103.719,0-176-42.188-176-80c0-5.438,1.875-10.938,4.719-16.375c15.688,5.281,33.031,9.438,51.563,12.219
	C160.156,323.281,233.344,352,320,352z M256,464c-103.719,0-176-42.188-176-80c0-6.281,2.688-12.656,6.469-18.969
	c-0.031-0.031-0.094-0.094-0.125-0.156C118.563,395.281,182.438,416,256,416c73.656,0,137.219-20.875,169.375-51.344
	c-0.031,0.031-0.031,0.031-0.062,0.062C429.25,371.125,432,377.594,432,384C432,421.812,359.719,464,256,464z M320,304
	c-41.062,0-76.875-6.75-105.563-17.094c90.219-5.313,161.469-41.531,168.781-87.156c21.776-9.654,39.211-21.683,50.431-35.365
	C472.385,180.134,496,202.629,496,224C496,261.812,423.719,304,320,304z"/>
</svg>
